<svg xmlns="http://www.w3.org/2000/svg" viewBox="0 0 149.76 150"><defs><style>.a{fill:#4e3f99;}.b{fill:#222050;}.c{fill:#c6c6c5;}.d{fill:#efb43e;}.e{fill:#eed053;}.f{fill:#7d7d7d;}.g{fill:#a3a3a3;}.h{fill:none;stroke:#7d7d7d;stroke-miterlimit:10;}.i{fill:#9b9a9a;}.j{fill:#666766;}</style></defs><title>spacequestlogo</title><path class="a" d="M79,87.2c-1.36,1.25-7.58,3.24-12.92,6.47-6.93,4.19-13.29,9.46-15.12,7.46s4-7.87,8.76-14.41c3.68-5,6.21-11,7.58-12.3,3.13-2.87,8.29-2.33,11.52,1.19S82.14,84.33,79,87.2Z"/><path class="a" d="M98.15,108.09c-1.36,1.25-7.58,3.24-12.92,6.47C78.3,118.75,71.94,124,70.11,122s4-7.88,8.76-14.41c3.68-5,6.21-11.06,7.57-12.31C89.57,92.44,94.73,93,98,96.51S101.28,105.22,98.15,108.09Z"/><path class="b" d="M81.05,104.34l-2.19,3.2c5.7-.72,13-4.18,20.28-9.75l-1.49-1.63Z"/><ellipse class="c" cx="94.54" cy="80.43" rx="32.67" ry="14.17" transform="translate(-29.5 84.98) rotate(-42.49)"/><path class="d" d="M70.37,113c-1.06,1-6.12,2.33-10.38,4.76-5.53,3.16-10.53,7.25-12.15,5.48s2.89-6.39,6.52-11.62c2.8-4,4.59-9,5.65-9.93,2.45-2.24,6.76-1.53,9.62,1.6S72.82,110.73,70.37,113Z"/><path class="e" d="M67.5,111.76c-.77.7-4.26,1.83-7.25,3.64-3.89,2.36-7.46,5.32-8.48,4.21s2.24-4.41,4.93-8.08c2.08-2.82,3.5-6.2,4.27-6.9a4.87,4.87,0,0,1,6.53,7.13Z"/><rect class="f" x="64.79" y="100.98" width="11" height="3.33" transform="translate(98.5 -18.52) rotate(47.51)"/><path class="g" d="M70.54,100.46c3.61-4,6.7-8.12,8.1-9.4,3.49-3.2,7.5-4.5,9-2.91s-.19,5.47-3.69,8.67c-1.39,1.28-5.74,4-10.06,7.24Z"/><path class="b" d="M84.71,94.73c-1.45,1.34-6.12,4.24-10.62,7.67-6.29,4.79-12.7,10.11-13.55,9.18s5-6.85,10.33-12.69C74.68,94.71,78,90.31,79.44,89c3.49-3.2,7.5-4.5,9-2.91S88.2,91.53,84.71,94.73Z"/><circle class="g" cx="102.72" cy="74.3" r="6"/><circle class="f" cx="102.78" cy="72.89" r="6"/><circle class="g" cx="112.18" cy="65.63" r="2.92"/><circle class="f" cx="112.24" cy="64.22" r="2.92"/><line class="h" x1="53.22" y1="74.75" x2="53.75" y2="46.96"/><polyline class="h" points="81.69 21.89 76.41 44.75 53.75 46.96 31.33 56.84"/><line class="h" x1="76.41" y1="44.75" x2="100.66" y2="48.58"/><circle class="f" cx="53.75" cy="46.96" r="3.56"/><circle class="f" cx="100.82" cy="48.81" r="3.56"/><circle class="i" cx="31.33" cy="56.84" r="2.22"/><circle class="i" cx="81.69" cy="21.89" r="2.22"/><circle class="j" cx="53.22" cy="74.75" r="5.56"/><circle class="j" cx="75.97" cy="44.11" r="7.11"/></svg>